<?xml version="1.0" encoding="us-ascii" standalone="no"?><svg xmlns="http://www.w3.org/2000/svg" xmlns:xlink="http://www.w3.org/1999/xlink" contentStyleType="text/css" height="381px" preserveAspectRatio="none" style="width:4552px;height:381px;background:#FFFFFF;" version="1.1" viewBox="0 0 4552 381" width="4552px" zoomAndPan="magnify"><defs/><g><!--class src.components.application_facade.ApplicationFacade--><g id="elem_src.components.application_facade.ApplicationFacade"><rect codeLine="2" fill="#F1F1F1" height="188.875" id="src.components.application_facade.ApplicationFacade" rx="2.5" ry="2.5" style="stroke:#181818;stroke-width:0.5;" width="232" x="7" y="7"/><ellipse cx="60.25" cy="23" fill="#ADD1B2" rx="11" ry="11" style="stroke:#181818;stroke-width:1.0;"/><path d="M63.0156,18.875 Q63.1719,18.6563 63.3594,18.5469 Q63.5469,18.4375 63.7656,18.4375 Q64.1406,18.4375 64.375,18.7031 Q64.6094,18.9531 64.6094,19.5625 L64.6094,21.0156 Q64.6094,21.625 64.375,21.8906 Q64.1406,22.1563 63.7656,22.1563 Q63.4219,22.1563 63.2188,21.9531 Q63.0156,21.7656 62.9063,21.25 Q62.8594,20.8906 62.6719,20.7031 Q62.3438,20.3281 61.7344,20.1094 Q61.125,19.8906 60.5,19.8906 Q59.7344,19.8906 59.0938,20.2188 Q58.4688,20.5469 57.9688,21.2969 Q57.4844,22.0469 57.4844,23.0781 L57.4844,24.1719 Q57.4844,25.4063 58.375,26.2344 Q59.2656,27.0469 60.8594,27.0469 Q61.7969,27.0469 62.4531,26.7969 Q62.8438,26.6406 63.2656,26.2031 Q63.5313,25.9375 63.6719,25.8594 Q63.8281,25.7813 64.0313,25.7813 Q64.3594,25.7813 64.6094,26.0469 Q64.875,26.2969 64.875,26.6406 Q64.875,26.9844 64.5313,27.3906 Q64.0313,27.9688 63.2344,28.2969 Q62.1563,28.75 60.8594,28.75 Q59.3438,28.75 58.1406,28.125 Q57.1563,27.625 56.4688,26.5625 Q55.7813,25.4844 55.7813,24.2031 L55.7813,23.0469 Q55.7813,21.7188 56.3906,20.5781 Q57.0156,19.4219 58.1094,18.8125 Q59.2031,18.1875 60.4375,18.1875 Q61.1719,18.1875 61.8125,18.3594 Q62.4688,18.5156 63.0156,18.875 Z " fill="#000000"/><text fill="#000000" font-family="sans-serif" font-size="14" lengthAdjust="spacing" textLength="117" x="80.75" y="28.7285">ApplicationFacade</text><line style="stroke:#181818;stroke-width:0.5;" x1="8" x2="238" y1="39" y2="39"/><text fill="#000000" font-family="sans-serif" font-size="14" lengthAdjust="spacing" textLength="105" x="13" y="57.5332">admin_controller</text><text fill="#000000" font-family="sans-serif" font-size="14" lengthAdjust="spacing" textLength="73" x="13" y="75.1426">admin_view</text><text fill="#000000" font-family="sans-serif" font-size="14" lengthAdjust="spacing" textLength="134" x="13" y="92.752">app : App, NoneType</text><text fill="#000000" font-family="sans-serif" font-size="14" lengthAdjust="spacing" textLength="97" x="13" y="110.3613">login_controller</text><line style="stroke:#181818;stroke-width:0.5;" x1="8" x2="238" y1="117.4375" y2="117.4375"/><text fill="#000000" font-family="sans-serif" font-size="14" lengthAdjust="spacing" textLength="124" x="13" y="135.9707">authenticate_user()</text><text fill="#000000" font-family="sans-serif" font-size="14" lengthAdjust="spacing" textLength="91" x="13" y="153.5801">initialize_app()</text><text fill="#000000" font-family="sans-serif" font-size="14" lengthAdjust="spacing" textLength="220" x="13" y="171.1895">navigate_to_dashboard(user_role)</text><text fill="#000000" font-family="sans-serif" font-size="14" lengthAdjust="spacing" textLength="31" x="13" y="188.7988">run()</text></g><!--class src.db.orm.base_model.BaseModel--><g id="elem_src.db.orm.base_model.BaseModel"><rect codeLine="12" fill="#F1F1F1" height="118.4375" id="src.db.orm.base_model.BaseModel" rx="2.5" ry="2.5" style="stroke:#181818;stroke-width:0.5;" width="206" x="2280" y="256"/><ellipse cx="2343.75" cy="272" fill="#ADD1B2" rx="11" ry="11" style="stroke:#181818;stroke-width:1.0;"/><path d="M2346.5156,267.875 Q2346.6719,267.6563 2346.8594,267.5469 Q2347.0469,267.4375 2347.2656,267.4375 Q2347.6406,267.4375 2347.875,267.7031 Q2348.1094,267.9531 2348.1094,268.5625 L2348.1094,270.0156 Q2348.1094,270.625 2347.875,270.8906 Q2347.6406,271.1563 2347.2656,271.1563 Q2346.9219,271.1563 2346.7188,270.9531 Q2346.5156,270.7656 2346.4063,270.25 Q2346.3594,269.8906 2346.1719,269.7031 Q2345.8438,269.3281 2345.2344,269.1094 Q2344.625,268.8906 2344,268.8906 Q2343.2344,268.8906 2342.5938,269.2188 Q2341.9688,269.5469 2341.4688,270.2969 Q2340.9844,271.0469 2340.9844,272.0781 L2340.9844,273.1719 Q2340.9844,274.4063 2341.875,275.2344 Q2342.7656,276.0469 2344.3594,276.0469 Q2345.2969,276.0469 2345.9531,275.7969 Q2346.3438,275.6406 2346.7656,275.2031 Q2347.0313,274.9375 2347.1719,274.8594 Q2347.3281,274.7813 2347.5313,274.7813 Q2347.8594,274.7813 2348.1094,275.0469 Q2348.375,275.2969 2348.375,275.6406 Q2348.375,275.9844 2348.0313,276.3906 Q2347.5313,276.9688 2346.7344,277.2969 Q2345.6563,277.75 2344.3594,277.75 Q2342.8438,277.75 2341.6406,277.125 Q2340.6563,276.625 2339.9688,275.5625 Q2339.2813,274.4844 2339.2813,273.2031 L2339.2813,272.0469 Q2339.2813,270.7188 2339.8906,269.5781 Q2340.5156,268.4219 2341.6094,267.8125 Q2342.7031,267.1875 2343.9375,267.1875 Q2344.6719,267.1875 2345.3125,267.3594 Q2345.9688,267.5156 2346.5156,267.875 Z " fill="#000000"/><text fill="#000000" font-family="sans-serif" font-size="14" lengthAdjust="spacing" textLength="70" x="2364.25" y="277.7285">BaseModel</text><line style="stroke:#181818;stroke-width:0.5;" x1="2281" x2="2485" y1="288" y2="288"/><text fill="#000000" font-family="sans-serif" font-size="14" lengthAdjust="spacing" textLength="52" x="2286" y="306.5332">db_path</text><line style="stroke:#181818;stroke-width:0.5;" x1="2281" x2="2485" y1="313.6094" y2="313.6094"/><text fill="#000000" font-family="sans-serif" font-size="14" lengthAdjust="spacing" textLength="194" x="2286" y="332.1426">execute_query(query, params)</text><text fill="#000000" font-family="sans-serif" font-size="14" lengthAdjust="spacing" textLength="154" x="2286" y="349.752">fetch_all(query, params)</text><text fill="#000000" font-family="sans-serif" font-size="14" lengthAdjust="spacing" textLength="164" x="2286" y="367.3613">fetch_one(query, params)</text></g><!--class src.db.orm.cliente_model.ClienteModel--><g id="elem_src.db.orm.cliente_model.ClienteModel"><rect codeLine="18" fill="#F1F1F1" height="118.4375" id="src.db.orm.cliente_model.ClienteModel" rx="2.5" ry="2.5" style="stroke:#181818;stroke-width:0.5;" width="358" x="274" y="42.5"/><ellipse cx="407.75" cy="58.5" fill="#ADD1B2" rx="11" ry="11" style="stroke:#181818;stroke-width:1.0;"/><path d="M410.5156,54.375 Q410.6719,54.1563 410.8594,54.0469 Q411.0469,53.9375 411.2656,53.9375 Q411.6406,53.9375 411.875,54.2031 Q412.1094,54.4531 412.1094,55.0625 L412.1094,56.5156 Q412.1094,57.125 411.875,57.3906 Q411.6406,57.6563 411.2656,57.6563 Q410.9219,57.6563 410.7188,57.4531 Q410.5156,57.2656 410.4063,56.75 Q410.3594,56.3906 410.1719,56.2031 Q409.8438,55.8281 409.2344,55.6094 Q408.625,55.3906 408,55.3906 Q407.2344,55.3906 406.5938,55.7188 Q405.9688,56.0469 405.4688,56.7969 Q404.9844,57.5469 404.9844,58.5781 L404.9844,59.6719 Q404.9844,60.9063 405.875,61.7344 Q406.7656,62.5469 408.3594,62.5469 Q409.2969,62.5469 409.9531,62.2969 Q410.3438,62.1406 410.7656,61.7031 Q411.0313,61.4375 411.1719,61.3594 Q411.3281,61.2813 411.5313,61.2813 Q411.8594,61.2813 412.1094,61.5469 Q412.375,61.7969 412.375,62.1406 Q412.375,62.4844 412.0313,62.8906 Q411.5313,63.4688 410.7344,63.7969 Q409.6563,64.25 408.3594,64.25 Q406.8438,64.25 405.6406,63.625 Q404.6563,63.125 403.9688,62.0625 Q403.2813,60.9844 403.2813,59.7031 L403.2813,58.5469 Q403.2813,57.2188 403.8906,56.0781 Q404.5156,54.9219 405.6094,54.3125 Q406.7031,53.6875 407.9375,53.6875 Q408.6719,53.6875 409.3125,53.8594 Q409.9688,54.0156 410.5156,54.375 Z " fill="#000000"/><text fill="#000000" font-family="sans-serif" font-size="14" lengthAdjust="spacing" textLength="82" x="428.25" y="64.2285">ClienteModel</text><line style="stroke:#181818;stroke-width:0.5;" x1="275" x2="631" y1="74.5" y2="74.5"/><line style="stroke:#181818;stroke-width:0.5;" x1="275" x2="631" y1="82.5" y2="82.5"/><text fill="#000000" font-family="sans-serif" font-size="14" lengthAdjust="spacing" textLength="274" x="280" y="101.0332">create_cliente(nombre, contacto, direccion)</text><text fill="#000000" font-family="sans-serif" font-size="14" lengthAdjust="spacing" textLength="158" x="280" y="118.6426">delete_cliente(cliente_id)</text><text fill="#000000" font-family="sans-serif" font-size="14" lengthAdjust="spacing" textLength="86" x="280" y="136.252">get_clientes()</text><text fill="#000000" font-family="sans-serif" font-size="14" lengthAdjust="spacing" textLength="346" x="280" y="153.8613">update_cliente(cliente_id, nombre, contacto, direccion)</text></g><!--class src.db.orm.detalle_venta_model.DetalleVentaModel--><g id="elem_src.db.orm.detalle_venta_model.DetalleVentaModel"><rect codeLine="24" fill="#F1F1F1" height="83.2188" id="src.db.orm.detalle_venta_model.DetalleVentaModel" rx="2.5" ry="2.5" style="stroke:#181818;stroke-width:0.5;" width="456" x="667" y="60"/><ellipse cx="831.25" cy="76" fill="#ADD1B2" rx="11" ry="11" style="stroke:#181818;stroke-width:1.0;"/><path d="M834.0156,71.875 Q834.1719,71.6563 834.3594,71.5469 Q834.5469,71.4375 834.7656,71.4375 Q835.1406,71.4375 835.375,71.7031 Q835.6094,71.9531 835.6094,72.5625 L835.6094,74.0156 Q835.6094,74.625 835.375,74.8906 Q835.1406,75.1563 834.7656,75.1563 Q834.4219,75.1563 834.2188,74.9531 Q834.0156,74.7656 833.9063,74.25 Q833.8594,73.8906 833.6719,73.7031 Q833.3438,73.3281 832.7344,73.1094 Q832.125,72.8906 831.5,72.8906 Q830.7344,72.8906 830.0938,73.2188 Q829.4688,73.5469 828.9688,74.2969 Q828.4844,75.0469 828.4844,76.0781 L828.4844,77.1719 Q828.4844,78.4063 829.375,79.2344 Q830.2656,80.0469 831.8594,80.0469 Q832.7969,80.0469 833.4531,79.7969 Q833.8438,79.6406 834.2656,79.2031 Q834.5313,78.9375 834.6719,78.8594 Q834.8281,78.7813 835.0313,78.7813 Q835.3594,78.7813 835.6094,79.0469 Q835.875,79.2969 835.875,79.6406 Q835.875,79.9844 835.5313,80.3906 Q835.0313,80.9688 834.2344,81.2969 Q833.1563,81.75 831.8594,81.75 Q830.3438,81.75 829.1406,81.125 Q828.1563,80.625 827.4688,79.5625 Q826.7813,78.4844 826.7813,77.2031 L826.7813,76.0469 Q826.7813,74.7188 827.3906,73.5781 Q828.0156,72.4219 829.1094,71.8125 Q830.2031,71.1875 831.4375,71.1875 Q832.1719,71.1875 832.8125,71.3594 Q833.4688,71.5156 834.0156,71.875 Z " fill="#000000"/><text fill="#000000" font-family="sans-serif" font-size="14" lengthAdjust="spacing" textLength="119" x="851.75" y="81.7285">DetalleVentaModel</text><line style="stroke:#181818;stroke-width:0.5;" x1="668" x2="1122" y1="92" y2="92"/><line style="stroke:#181818;stroke-width:0.5;" x1="668" x2="1122" y1="100" y2="100"/><text fill="#000000" font-family="sans-serif" font-size="14" lengthAdjust="spacing" textLength="444" x="673" y="118.5332">create_detalle_venta(id_venta, id_producto, cantidad, precio_unitario)</text><text fill="#000000" font-family="sans-serif" font-size="14" lengthAdjust="spacing" textLength="177" x="673" y="136.1426">get_detalle_venta(venta_id)</text></g><!--class src.db.orm.movimiento_inventario_model.MovimientoInventarioModel--><g id="elem_src.db.orm.movimiento_inventario_model.MovimientoInventarioModel"><rect codeLine="28" fill="#F1F1F1" height="118.4375" id="src.db.orm.movimiento_inventario_model.MovimientoInventarioModel" rx="2.5" ry="2.5" style="stroke:#181818;stroke-width:0.5;" width="515" x="1158.5" y="42.5"/><ellipse cx="1326.25" cy="58.5" fill="#ADD1B2" rx="11" ry="11" style="stroke:#181818;stroke-width:1.0;"/><path d="M1329.0156,54.375 Q1329.1719,54.1563 1329.3594,54.0469 Q1329.5469,53.9375 1329.7656,53.9375 Q1330.1406,53.9375 1330.375,54.2031 Q1330.6094,54.4531 1330.6094,55.0625 L1330.6094,56.5156 Q1330.6094,57.125 1330.375,57.3906 Q1330.1406,57.6563 1329.7656,57.6563 Q1329.4219,57.6563 1329.2188,57.4531 Q1329.0156,57.2656 1328.9063,56.75 Q1328.8594,56.3906 1328.6719,56.2031 Q1328.3438,55.8281 1327.7344,55.6094 Q1327.125,55.3906 1326.5,55.3906 Q1325.7344,55.3906 1325.0938,55.7188 Q1324.4688,56.0469 1323.9688,56.7969 Q1323.4844,57.5469 1323.4844,58.5781 L1323.4844,59.6719 Q1323.4844,60.9063 1324.375,61.7344 Q1325.2656,62.5469 1326.8594,62.5469 Q1327.7969,62.5469 1328.4531,62.2969 Q1328.8438,62.1406 1329.2656,61.7031 Q1329.5313,61.4375 1329.6719,61.3594 Q1329.8281,61.2813 1330.0313,61.2813 Q1330.3594,61.2813 1330.6094,61.5469 Q1330.875,61.7969 1330.875,62.1406 Q1330.875,62.4844 1330.5313,62.8906 Q1330.0313,63.4688 1329.2344,63.7969 Q1328.1563,64.25 1326.8594,64.25 Q1325.3438,64.25 1324.1406,63.625 Q1323.1563,63.125 1322.4688,62.0625 Q1321.7813,60.9844 1321.7813,59.7031 L1321.7813,58.5469 Q1321.7813,57.2188 1322.3906,56.0781 Q1323.0156,54.9219 1324.1094,54.3125 Q1325.2031,53.6875 1326.4375,53.6875 Q1327.1719,53.6875 1327.8125,53.8594 Q1328.4688,54.0156 1329.0156,54.375 Z " fill="#000000"/><text fill="#000000" font-family="sans-serif" font-size="14" lengthAdjust="spacing" textLength="171" x="1346.75" y="64.2285">MovimientoInventarioModel</text><line style="stroke:#181818;stroke-width:0.5;" x1="1159.5" x2="1672.5" y1="74.5" y2="74.5"/><line style="stroke:#181818;stroke-width:0.5;" x1="1159.5" x2="1672.5" y1="82.5" y2="82.5"/><text fill="#000000" font-family="sans-serif" font-size="14" lengthAdjust="spacing" textLength="401" x="1164.5" y="101.0332">create_movimiento(id_producto, id_trabajador, cantidad, fecha)</text><text fill="#000000" font-family="sans-serif" font-size="14" lengthAdjust="spacing" textLength="218" x="1164.5" y="118.6426">delete_movimiento(movimiento_id)</text><text fill="#000000" font-family="sans-serif" font-size="14" lengthAdjust="spacing" textLength="116" x="1164.5" y="136.252">get_movimientos()</text><text fill="#000000" font-family="sans-serif" font-size="14" lengthAdjust="spacing" textLength="503" x="1164.5" y="153.8613">update_movimiento(movimiento_id, id_producto, id_trabajador, cantidad, fecha)</text></g><!--class src.db.orm.producto_model.ProductoModel--><g id="elem_src.db.orm.producto_model.ProductoModel"><rect codeLine="34" fill="#F1F1F1" height="118.4375" id="src.db.orm.producto_model.ProductoModel" rx="2.5" ry="2.5" style="stroke:#181818;stroke-width:0.5;" width="763" x="1708.5" y="42.5"/><ellipse cx="2038.25" cy="58.5" fill="#ADD1B2" rx="11" ry="11" style="stroke:#181818;stroke-width:1.0;"/><path d="M2041.0156,54.375 Q2041.1719,54.1563 2041.3594,54.0469 Q2041.5469,53.9375 2041.7656,53.9375 Q2042.1406,53.9375 2042.375,54.2031 Q2042.6094,54.4531 2042.6094,55.0625 L2042.6094,56.5156 Q2042.6094,57.125 2042.375,57.3906 Q2042.1406,57.6563 2041.7656,57.6563 Q2041.4219,57.6563 2041.2188,57.4531 Q2041.0156,57.2656 2040.9063,56.75 Q2040.8594,56.3906 2040.6719,56.2031 Q2040.3438,55.8281 2039.7344,55.6094 Q2039.125,55.3906 2038.5,55.3906 Q2037.7344,55.3906 2037.0938,55.7188 Q2036.4688,56.0469 2035.9688,56.7969 Q2035.4844,57.5469 2035.4844,58.5781 L2035.4844,59.6719 Q2035.4844,60.9063 2036.375,61.7344 Q2037.2656,62.5469 2038.8594,62.5469 Q2039.7969,62.5469 2040.4531,62.2969 Q2040.8438,62.1406 2041.2656,61.7031 Q2041.5313,61.4375 2041.6719,61.3594 Q2041.8281,61.2813 2042.0313,61.2813 Q2042.3594,61.2813 2042.6094,61.5469 Q2042.875,61.7969 2042.875,62.1406 Q2042.875,62.4844 2042.5313,62.8906 Q2042.0313,63.4688 2041.2344,63.7969 Q2040.1563,64.25 2038.8594,64.25 Q2037.3438,64.25 2036.1406,63.625 Q2035.1563,63.125 2034.4688,62.0625 Q2033.7813,60.9844 2033.7813,59.7031 L2033.7813,58.5469 Q2033.7813,57.2188 2034.3906,56.0781 Q2035.0156,54.9219 2036.1094,54.3125 Q2037.2031,53.6875 2038.4375,53.6875 Q2039.1719,53.6875 2039.8125,53.8594 Q2040.4688,54.0156 2041.0156,54.375 Z " fill="#000000"/><text fill="#000000" font-family="sans-serif" font-size="14" lengthAdjust="spacing" textLength="95" x="2058.75" y="64.2285">ProductoModel</text><line style="stroke:#181818;stroke-width:0.5;" x1="1709.5" x2="2470.5" y1="74.5" y2="74.5"/><line style="stroke:#181818;stroke-width:0.5;" x1="1709.5" x2="2470.5" y1="82.5" y2="82.5"/><text fill="#000000" font-family="sans-serif" font-size="14" lengthAdjust="spacing" textLength="664" x="1714.5" y="101.0332">create_producto(nombre, categoria, descripcion, modelo, precio_al_por_menor, stock, detalles_tecnicos)</text><text fill="#000000" font-family="sans-serif" font-size="14" lengthAdjust="spacing" textLength="188" x="1714.5" y="118.6426">delete_producto(producto_id)</text><text fill="#000000" font-family="sans-serif" font-size="14" lengthAdjust="spacing" textLength="101" x="1714.5" y="136.252">get_productos()</text><text fill="#000000" font-family="sans-serif" font-size="14" lengthAdjust="spacing" textLength="751" x="1714.5" y="153.8613">update_producto(producto_id, nombre, categoria, descripcion, modelo, precio_al_por_menor, stock, detalles_tecnicos)</text></g><!--class src.db.orm.proveedor_model.ProveedorModel--><g id="elem_src.db.orm.proveedor_model.ProveedorModel"><rect codeLine="40" fill="#F1F1F1" height="118.4375" id="src.db.orm.proveedor_model.ProveedorModel" rx="2.5" ry="2.5" style="stroke:#181818;stroke-width:0.5;" width="341" x="2506.5" y="42.5"/><ellipse cx="2620.75" cy="58.5" fill="#ADD1B2" rx="11" ry="11" style="stroke:#181818;stroke-width:1.0;"/><path d="M2623.5156,54.375 Q2623.6719,54.1563 2623.8594,54.0469 Q2624.0469,53.9375 2624.2656,53.9375 Q2624.6406,53.9375 2624.875,54.2031 Q2625.1094,54.4531 2625.1094,55.0625 L2625.1094,56.5156 Q2625.1094,57.125 2624.875,57.3906 Q2624.6406,57.6563 2624.2656,57.6563 Q2623.9219,57.6563 2623.7188,57.4531 Q2623.5156,57.2656 2623.4063,56.75 Q2623.3594,56.3906 2623.1719,56.2031 Q2622.8438,55.8281 2622.2344,55.6094 Q2621.625,55.3906 2621,55.3906 Q2620.2344,55.3906 2619.5938,55.7188 Q2618.9688,56.0469 2618.4688,56.7969 Q2617.9844,57.5469 2617.9844,58.5781 L2617.9844,59.6719 Q2617.9844,60.9063 2618.875,61.7344 Q2619.7656,62.5469 2621.3594,62.5469 Q2622.2969,62.5469 2622.9531,62.2969 Q2623.3438,62.1406 2623.7656,61.7031 Q2624.0313,61.4375 2624.1719,61.3594 Q2624.3281,61.2813 2624.5313,61.2813 Q2624.8594,61.2813 2625.1094,61.5469 Q2625.375,61.7969 2625.375,62.1406 Q2625.375,62.4844 2625.0313,62.8906 Q2624.5313,63.4688 2623.7344,63.7969 Q2622.6563,64.25 2621.3594,64.25 Q2619.8438,64.25 2618.6406,63.625 Q2617.6563,63.125 2616.9688,62.0625 Q2616.2813,60.9844 2616.2813,59.7031 L2616.2813,58.5469 Q2616.2813,57.2188 2616.8906,56.0781 Q2617.5156,54.9219 2618.6094,54.3125 Q2619.7031,53.6875 2620.9375,53.6875 Q2621.6719,53.6875 2622.3125,53.8594 Q2622.9688,54.0156 2623.5156,54.375 Z " fill="#000000"/><text fill="#000000" font-family="sans-serif" font-size="14" lengthAdjust="spacing" textLength="104" x="2641.25" y="64.2285">ProveedorModel</text><line style="stroke:#181818;stroke-width:0.5;" x1="2507.5" x2="2846.5" y1="74.5" y2="74.5"/><line style="stroke:#181818;stroke-width:0.5;" x1="2507.5" x2="2846.5" y1="82.5" y2="82.5"/><text fill="#000000" font-family="sans-serif" font-size="14" lengthAdjust="spacing" textLength="233" x="2512.5" y="101.0332">create_proveedor(nombre, contacto)</text><text fill="#000000" font-family="sans-serif" font-size="14" lengthAdjust="spacing" textLength="206" x="2512.5" y="118.6426">delete_proveedor(proveedor_id)</text><text fill="#000000" font-family="sans-serif" font-size="14" lengthAdjust="spacing" textLength="118" x="2512.5" y="136.252">get_proveedores()</text><text fill="#000000" font-family="sans-serif" font-size="14" lengthAdjust="spacing" textLength="329" x="2512.5" y="153.8613">update_proveedor(proveedor_id, nombre, contacto)</text></g><!--class src.db.orm.suministra_model.SuministraModel--><g id="elem_src.db.orm.suministra_model.SuministraModel"><rect codeLine="46" fill="#F1F1F1" height="118.4375" id="src.db.orm.suministra_model.SuministraModel" rx="2.5" ry="2.5" style="stroke:#181818;stroke-width:0.5;" width="643" x="2882.5" y="42.5"/><ellipse cx="3147.75" cy="58.5" fill="#ADD1B2" rx="11" ry="11" style="stroke:#181818;stroke-width:1.0;"/><path d="M3150.5156,54.375 Q3150.6719,54.1563 3150.8594,54.0469 Q3151.0469,53.9375 3151.2656,53.9375 Q3151.6406,53.9375 3151.875,54.2031 Q3152.1094,54.4531 3152.1094,55.0625 L3152.1094,56.5156 Q3152.1094,57.125 3151.875,57.3906 Q3151.6406,57.6563 3151.2656,57.6563 Q3150.9219,57.6563 3150.7188,57.4531 Q3150.5156,57.2656 3150.4063,56.75 Q3150.3594,56.3906 3150.1719,56.2031 Q3149.8438,55.8281 3149.2344,55.6094 Q3148.625,55.3906 3148,55.3906 Q3147.2344,55.3906 3146.5938,55.7188 Q3145.9688,56.0469 3145.4688,56.7969 Q3144.9844,57.5469 3144.9844,58.5781 L3144.9844,59.6719 Q3144.9844,60.9063 3145.875,61.7344 Q3146.7656,62.5469 3148.3594,62.5469 Q3149.2969,62.5469 3149.9531,62.2969 Q3150.3438,62.1406 3150.7656,61.7031 Q3151.0313,61.4375 3151.1719,61.3594 Q3151.3281,61.2813 3151.5313,61.2813 Q3151.8594,61.2813 3152.1094,61.5469 Q3152.375,61.7969 3152.375,62.1406 Q3152.375,62.4844 3152.0313,62.8906 Q3151.5313,63.4688 3150.7344,63.7969 Q3149.6563,64.25 3148.3594,64.25 Q3146.8438,64.25 3145.6406,63.625 Q3144.6563,63.125 3143.9688,62.0625 Q3143.2813,60.9844 3143.2813,59.7031 L3143.2813,58.5469 Q3143.2813,57.2188 3143.8906,56.0781 Q3144.5156,54.9219 3145.6094,54.3125 Q3146.7031,53.6875 3147.9375,53.6875 Q3148.6719,53.6875 3149.3125,53.8594 Q3149.9688,54.0156 3150.5156,54.375 Z " fill="#000000"/><text fill="#000000" font-family="sans-serif" font-size="14" lengthAdjust="spacing" textLength="104" x="3168.25" y="64.2285">SuministraModel</text><line style="stroke:#181818;stroke-width:0.5;" x1="2883.5" x2="3524.5" y1="74.5" y2="74.5"/><line style="stroke:#181818;stroke-width:0.5;" x1="2883.5" x2="3524.5" y1="82.5" y2="82.5"/><text fill="#000000" font-family="sans-serif" font-size="14" lengthAdjust="spacing" textLength="536" x="2888.5" y="101.0332">create_suministro(id_proveedor, id_producto, cantidad, fecha, precio_al_por_mayor)</text><text fill="#000000" font-family="sans-serif" font-size="14" lengthAdjust="spacing" textLength="204" x="2888.5" y="118.6426">delete_suministro(suministro_id)</text><text fill="#000000" font-family="sans-serif" font-size="14" lengthAdjust="spacing" textLength="109" x="2888.5" y="136.252">get_suministros()</text><text fill="#000000" font-family="sans-serif" font-size="14" lengthAdjust="spacing" textLength="631" x="2888.5" y="153.8613">update_suministro(suministro_id, id_proveedor, id_producto, cantidad, fecha, precio_al_por_mayor)</text></g><!--class src.db.orm.trabajador_model.TrabajadorModel--><g id="elem_src.db.orm.trabajador_model.TrabajadorModel"><rect codeLine="52" fill="#F1F1F1" height="136.0469" id="src.db.orm.trabajador_model.TrabajadorModel" rx="2.5" ry="2.5" style="stroke:#181818;stroke-width:0.5;" width="389" x="3560.5" y="33.5"/><ellipse cx="3696.75" cy="49.5" fill="#ADD1B2" rx="11" ry="11" style="stroke:#181818;stroke-width:1.0;"/><path d="M3699.5156,45.375 Q3699.6719,45.1563 3699.8594,45.0469 Q3700.0469,44.9375 3700.2656,44.9375 Q3700.6406,44.9375 3700.875,45.2031 Q3701.1094,45.4531 3701.1094,46.0625 L3701.1094,47.5156 Q3701.1094,48.125 3700.875,48.3906 Q3700.6406,48.6563 3700.2656,48.6563 Q3699.9219,48.6563 3699.7188,48.4531 Q3699.5156,48.2656 3699.4063,47.75 Q3699.3594,47.3906 3699.1719,47.2031 Q3698.8438,46.8281 3698.2344,46.6094 Q3697.625,46.3906 3697,46.3906 Q3696.2344,46.3906 3695.5938,46.7188 Q3694.9688,47.0469 3694.4688,47.7969 Q3693.9844,48.5469 3693.9844,49.5781 L3693.9844,50.6719 Q3693.9844,51.9063 3694.875,52.7344 Q3695.7656,53.5469 3697.3594,53.5469 Q3698.2969,53.5469 3698.9531,53.2969 Q3699.3438,53.1406 3699.7656,52.7031 Q3700.0313,52.4375 3700.1719,52.3594 Q3700.3281,52.2813 3700.5313,52.2813 Q3700.8594,52.2813 3701.1094,52.5469 Q3701.375,52.7969 3701.375,53.1406 Q3701.375,53.4844 3701.0313,53.8906 Q3700.5313,54.4688 3699.7344,54.7969 Q3698.6563,55.25 3697.3594,55.25 Q3695.8438,55.25 3694.6406,54.625 Q3693.6563,54.125 3692.9688,53.0625 Q3692.2813,51.9844 3692.2813,50.7031 L3692.2813,49.5469 Q3692.2813,48.2188 3692.8906,47.0781 Q3693.5156,45.9219 3694.6094,45.3125 Q3695.7031,44.6875 3696.9375,44.6875 Q3697.6719,44.6875 3698.3125,44.8594 Q3698.9688,45.0156 3699.5156,45.375 Z " fill="#000000"/><text fill="#000000" font-family="sans-serif" font-size="14" lengthAdjust="spacing" textLength="108" x="3717.25" y="55.2285">TrabajadorModel</text><line style="stroke:#181818;stroke-width:0.5;" x1="3561.5" x2="3948.5" y1="65.5" y2="65.5"/><line style="stroke:#181818;stroke-width:0.5;" x1="3561.5" x2="3948.5" y1="73.5" y2="73.5"/><text fill="#000000" font-family="sans-serif" font-size="14" lengthAdjust="spacing" textLength="281" x="3566.5" y="92.0332">create_trabajador(nombre, tipo, contrase&#241;a)</text><text fill="#000000" font-family="sans-serif" font-size="14" lengthAdjust="spacing" textLength="206" x="3566.5" y="109.6426">delete_trabajador(trabajador_id)</text><text fill="#000000" font-family="sans-serif" font-size="14" lengthAdjust="spacing" textLength="118" x="3566.5" y="127.252">get_trabajadores()</text><text fill="#000000" font-family="sans-serif" font-size="14" lengthAdjust="spacing" textLength="377" x="3566.5" y="144.8613">update_trabajador(trabajador_id, nombre, tipo, contrase&#241;a)</text><text fill="#000000" font-family="sans-serif" font-size="14" lengthAdjust="spacing" textLength="244" x="3566.5" y="162.4707">verify_trabajador(nombre, contrase&#241;a)</text></g><!--class src.db.orm.venta_model.VentaModel--><g id="elem_src.db.orm.venta_model.VentaModel"><rect codeLine="59" fill="#F1F1F1" height="118.4375" id="src.db.orm.venta_model.VentaModel" rx="2.5" ry="2.5" style="stroke:#181818;stroke-width:0.5;" width="561" x="3984.5" y="42.5"/><ellipse cx="4223.25" cy="58.5" fill="#ADD1B2" rx="11" ry="11" style="stroke:#181818;stroke-width:1.0;"/><path d="M4226.0156,54.375 Q4226.1719,54.1563 4226.3594,54.0469 Q4226.5469,53.9375 4226.7656,53.9375 Q4227.1406,53.9375 4227.375,54.2031 Q4227.6094,54.4531 4227.6094,55.0625 L4227.6094,56.5156 Q4227.6094,57.125 4227.375,57.3906 Q4227.1406,57.6563 4226.7656,57.6563 Q4226.4219,57.6563 4226.2188,57.4531 Q4226.0156,57.2656 4225.9063,56.75 Q4225.8594,56.3906 4225.6719,56.2031 Q4225.3438,55.8281 4224.7344,55.6094 Q4224.125,55.3906 4223.5,55.3906 Q4222.7344,55.3906 4222.0938,55.7188 Q4221.4688,56.0469 4220.9688,56.7969 Q4220.4844,57.5469 4220.4844,58.5781 L4220.4844,59.6719 Q4220.4844,60.9063 4221.375,61.7344 Q4222.2656,62.5469 4223.8594,62.5469 Q4224.7969,62.5469 4225.4531,62.2969 Q4225.8438,62.1406 4226.2656,61.7031 Q4226.5313,61.4375 4226.6719,61.3594 Q4226.8281,61.2813 4227.0313,61.2813 Q4227.3594,61.2813 4227.6094,61.5469 Q4227.875,61.7969 4227.875,62.1406 Q4227.875,62.4844 4227.5313,62.8906 Q4227.0313,63.4688 4226.2344,63.7969 Q4225.1563,64.25 4223.8594,64.25 Q4222.3438,64.25 4221.1406,63.625 Q4220.1563,63.125 4219.4688,62.0625 Q4218.7813,60.9844 4218.7813,59.7031 L4218.7813,58.5469 Q4218.7813,57.2188 4219.3906,56.0781 Q4220.0156,54.9219 4221.1094,54.3125 Q4222.2031,53.6875 4223.4375,53.6875 Q4224.1719,53.6875 4224.8125,53.8594 Q4225.4688,54.0156 4226.0156,54.375 Z " fill="#000000"/><text fill="#000000" font-family="sans-serif" font-size="14" lengthAdjust="spacing" textLength="75" x="4243.75" y="64.2285">VentaModel</text><line style="stroke:#181818;stroke-width:0.5;" x1="3985.5" x2="4544.5" y1="74.5" y2="74.5"/><line style="stroke:#181818;stroke-width:0.5;" x1="3985.5" x2="4544.5" y1="82.5" y2="82.5"/><text fill="#000000" font-family="sans-serif" font-size="14" lengthAdjust="spacing" textLength="483" x="3990.5" y="101.0332">create_venta(id_cliente, id_trabajador, fecha, metodo_pago, observaciones)</text><text fill="#000000" font-family="sans-serif" font-size="14" lengthAdjust="spacing" textLength="146" x="3990.5" y="118.6426">delete_venta(venta_id)</text><text fill="#000000" font-family="sans-serif" font-size="14" lengthAdjust="spacing" textLength="80" x="3990.5" y="136.252">get_ventas()</text><text fill="#000000" font-family="sans-serif" font-size="14" lengthAdjust="spacing" textLength="549" x="3990.5" y="153.8613">update_venta(venta_id, id_cliente, id_trabajador, fecha, metodo_pago, observaciones)</text></g><!--link src.db.orm.cliente_model.ClienteModel to src.db.orm.base_model.BaseModel--><g id="link_src.db.orm.cliente_model.ClienteModel_src.db.orm.base_model.BaseModel"><path codeLine="65" d="M556.01,160.55 C585.23,174.52 617.64,187.77 649,196 C960.11,277.61 1937.5841,304.7459 2261.8341,311.6659 " fill="none" id="src.db.orm.cliente_model.ClienteModel-to-src.db.orm.base_model.BaseModel" style="stroke:#181818;stroke-width:1.0;"/><polygon fill="none" points="2279.83,312.05,2261.9621,305.6673,2261.7061,317.6646,2279.83,312.05" style="stroke:#181818;stroke-width:1.0;"/></g><!--link src.db.orm.detalle_venta_model.DetalleVentaModel to src.db.orm.base_model.BaseModel--><g id="link_src.db.orm.detalle_venta_model.DetalleVentaModel_src.db.orm.base_model.BaseModel"><path codeLine="66" d="M984.31,143.09 C1030.21,162.23 1087.6,183.56 1141,196 C1555.24,292.54 2046.7918,310.152 2261.6718,313.232 " fill="none" id="src.db.orm.detalle_venta_model.DetalleVentaModel-to-src.db.orm.base_model.BaseModel" style="stroke:#181818;stroke-width:1.0;"/><polygon fill="none" points="2279.67,313.49,2261.7578,307.2326,2261.5859,319.2314,2279.67,313.49" style="stroke:#181818;stroke-width:1.0;"/></g><!--link src.db.orm.movimiento_inventario_model.MovimientoInventarioModel to src.db.orm.base_model.BaseModel--><g id="link_src.db.orm.movimiento_inventario_model.MovimientoInventarioModel_src.db.orm.base_model.BaseModel"><path codeLine="67" d="M1572.86,160.62 C1611.15,173.48 1652.26,186.18 1691,196 C1897.15,248.27 2125.9272,281.8127 2262.0772,299.3327 " fill="none" id="src.db.orm.movimiento_inventario_model.MovimientoInventarioModel-to-src.db.orm.base_model.BaseModel" style="stroke:#181818;stroke-width:1.0;"/><polygon fill="none" points="2279.93,301.63,2262.843,293.3817,2261.3114,305.2836,2279.93,301.63" style="stroke:#181818;stroke-width:1.0;"/></g><!--link src.db.orm.producto_model.ProductoModel to src.db.orm.base_model.BaseModel--><g id="link_src.db.orm.producto_model.ProductoModel_src.db.orm.base_model.BaseModel"><path codeLine="68" d="M2170.45,160.57 C2211.53,190.23 2246.7851,215.6749 2287.8751,245.3349 " fill="none" id="src.db.orm.producto_model.ProductoModel-to-src.db.orm.base_model.BaseModel" style="stroke:#181818;stroke-width:1.0;"/><polygon fill="none" points="2302.47,255.87,2291.3867,240.47,2284.3634,250.1999,2302.47,255.87" style="stroke:#181818;stroke-width:1.0;"/></g><!--link src.db.orm.proveedor_model.ProveedorModel to src.db.orm.base_model.BaseModel--><g id="link_src.db.orm.proveedor_model.ProveedorModel_src.db.orm.base_model.BaseModel"><path codeLine="69" d="M2596.27,160.57 C2555.05,190.23 2519.6419,215.6985 2478.4119,245.3585 " fill="none" id="src.db.orm.proveedor_model.ProveedorModel-to-src.db.orm.base_model.BaseModel" style="stroke:#181818;stroke-width:1.0;"/><polygon fill="none" points="2463.8,255.87,2481.9158,250.2291,2474.9081,240.4879,2463.8,255.87" style="stroke:#181818;stroke-width:1.0;"/></g><!--link src.db.orm.suministra_model.SuministraModel to src.db.orm.base_model.BaseModel--><g id="link_src.db.orm.suministra_model.SuministraModel_src.db.orm.base_model.BaseModel"><path codeLine="70" d="M2997.19,160.57 C2953.6,172.52 2907.84,184.85 2865,196 C2734.73,229.9 2601.4302,262.2094 2503.6902,285.4894 " fill="none" id="src.db.orm.suministra_model.SuministraModel-to-src.db.orm.base_model.BaseModel" style="stroke:#181818;stroke-width:1.0;"/><polygon fill="none" points="2486.18,289.66,2505.0804,291.3261,2502.3,279.6527,2486.18,289.66" style="stroke:#181818;stroke-width:1.0;"/></g><!--link src.db.orm.trabajador_model.TrabajadorModel to src.db.orm.base_model.BaseModel--><g id="link_src.db.orm.trabajador_model.TrabajadorModel_src.db.orm.base_model.BaseModel"><path codeLine="71" d="M3619.85,169.59 C3594.79,179.86 3568.47,189.27 3543,196 C3162.59,296.54 2709.1093,312.2693 2504.1593,314.0993 " fill="none" id="src.db.orm.trabajador_model.TrabajadorModel-to-src.db.orm.base_model.BaseModel" style="stroke:#181818;stroke-width:1.0;"/><polygon fill="none" points="2486.16,314.26,2504.2129,320.099,2504.1057,308.0995,2486.16,314.26" style="stroke:#181818;stroke-width:1.0;"/></g><!--link src.db.orm.venta_model.VentaModel to src.db.orm.base_model.BaseModel--><g id="link_src.db.orm.venta_model.VentaModel_src.db.orm.base_model.BaseModel"><path codeLine="72" d="M4103.56,160.56 C4059.76,174.27 4012,187.38 3967,196 C3416.18,301.47 2758.8399,313.7961 2504.4599,314.4161 " fill="none" id="src.db.orm.venta_model.VentaModel-to-src.db.orm.base_model.BaseModel" style="stroke:#181818;stroke-width:1.0;"/><polygon fill="none" points="2486.46,314.46,2504.4746,320.4161,2504.4453,308.4161,2486.46,314.46" style="stroke:#181818;stroke-width:1.0;"/></g><!--SRC=[hLPBRjim4Dtx54HMBg3u05qKw0S5kaXH846tn8WSssmbaIKfjswRG_KClLY7-b2K9SLnqeqWpRpvlCVFoA5d5PJe30YyHGCMlBQiqXMkH07EiQlNnXHAW5UwUWy295unSCnPiH6wD0IilDl00EBR1hMPnB5VAyP0bghYGbVUwg906qq7XT_3Xp7i9QFOZ7sat7T7WsGjz6uILVizbGuLaDSExVe5MLMbl892_KHEcHfJ1GUr2o2lkGItppLOkGuHd99XWDYw8kXzp_WDEBpH4el8LEORRSjDJWvU1iycOXfMCkS6_9xUy0UAcefzgz4UryqpOq7MqeLAM_HYpw4ebbp4-TGL-tfRA68ytvfeVLrtAR9fK5WC4dIeTQNBt6B6Wg8WlCwOL1Q5eBKAhL0K9kW-jvB1kKFVUrmZS6qapA8pzc2ToEiTUb84FrCOp9AJBO0V0gAZE0bAUOu2ragsBncZDsErh9jM1D3saK1j6kf9QLxJvW6hTCzodAKj7ZI8ZT_eWoe3M_sXQjmKF4kWZ42k8h8ZifWa9JGaM8yuq8UtaCCNaDgcbBOezf2iPP8WRIQkw60SBUfIs8cKvzg8YdtgGcPLwlDrmeomgHWzRjZ6PDrfgsY59JfXbGaxB6DD7XtN5mfkjEKbLg59vxNu6WAQHNRSewYKq2uHBHQAdGs2zQQHN7C1oIdulssceXuGIVabLLll86k2Fj6rzKpkXx4c7MX8F5AbjU6fBZD1q_iX8NLRqrHGZhRLB2iNtHsj4tpAAsBxmzDsi7WTD9jsiXnmr3RH8Kawl2PA3CQH4ajXVJFFQ2rATnUFugnqmqdjf3l1fz8DsBWdl3AwNJ5BC_3ld_IMIU19bK6KmJZU7qjnmmwPhNf0gxR7kIP7m2ZCyeH99ylyI8cZf9jlaqklMveIlPQQVWTsrA_EwJVZ0E6OOtgnd4wKLftcUwJB6DUKV4Rv-zNZVXYkht-_ElVRixfuF5-QzMapyz8g3ywS9oHxwAgzDDtPE-xIX6TF_gK95uxDOzBy0m00]--></g></svg>