<?xml version="1.0" encoding="us-ascii" standalone="no"?><svg xmlns="http://www.w3.org/2000/svg" xmlns:xlink="http://www.w3.org/1999/xlink" contentStyleType="text/css" height="298px" preserveAspectRatio="none" style="width:4067px;height:298px;background:#FFFFFF;" version="1.1" viewBox="0 0 4067 298" width="4067px" zoomAndPan="magnify"><defs/><g><path d="M8.5,6 L31.5,6 A3.75,3.75 0 0 1 34,8.5 L41,29.6094 L45.5,29.6094 A2.5,2.5 0 0 1 48,32.1094 L48,58.7188 A2.5,2.5 0 0 1 45.5,61.2188 L8.5,61.2188 A2.5,2.5 0 0 1 6,58.7188 L6,8.5 A2.5,2.5 0 0 1 8.5,6 " fill="#F1F1F1" style="stroke:#181818;stroke-width:0.5;"/><line style="stroke:#181818;stroke-width:0.5;" x1="6" x2="41" y1="29.6094" y2="29.6094"/><text fill="#000000" font-family="sans-serif" font-size="14" font-weight="bold" lengthAdjust="spacing" textLength="22" x="10" y="22.5332">src</text><path d="M86,6 L200,6 A3.75,3.75 0 0 1 202.5,8.5 L209.5,29.6094 L214,29.6094 A2.5,2.5 0 0 1 216.5,32.1094 L216.5,58.7188 A2.5,2.5 0 0 1 214,61.2188 L86,61.2188 A2.5,2.5 0 0 1 83.5,58.7188 L83.5,8.5 A2.5,2.5 0 0 1 86,6 " fill="#F1F1F1" style="stroke:#181818;stroke-width:0.5;"/><line style="stroke:#181818;stroke-width:0.5;" x1="83.5" x2="209.5" y1="29.6094" y2="29.6094"/><text fill="#000000" font-family="sans-serif" font-size="14" font-weight="bold" lengthAdjust="spacing" textLength="113" x="87.5" y="22.5332">src.components</text><path d="M254.5,6 L491.5,6 A3.75,3.75 0 0 1 494,8.5 L501,29.6094 L505.5,29.6094 A2.5,2.5 0 0 1 508,32.1094 L508,58.7188 A2.5,2.5 0 0 1 505.5,61.2188 L254.5,61.2188 A2.5,2.5 0 0 1 252,58.7188 L252,8.5 A2.5,2.5 0 0 1 254.5,6 " fill="#F1F1F1" style="stroke:#181818;stroke-width:0.5;"/><line style="stroke:#181818;stroke-width:0.5;" x1="252" x2="501" y1="29.6094" y2="29.6094"/><text fill="#000000" font-family="sans-serif" font-size="14" font-weight="bold" lengthAdjust="spacing" textLength="236" x="256" y="22.5332">src.components.AdminDashboard</text><path d="M545.5,6 L818.5,6 A3.75,3.75 0 0 1 821,8.5 L828,29.6094 L832.5,29.6094 A2.5,2.5 0 0 1 835,32.1094 L835,58.7188 A2.5,2.5 0 0 1 832.5,61.2188 L545.5,61.2188 A2.5,2.5 0 0 1 543,58.7188 L543,8.5 A2.5,2.5 0 0 1 545.5,6 " fill="#F1F1F1" style="stroke:#181818;stroke-width:0.5;"/><line style="stroke:#181818;stroke-width:0.5;" x1="543" x2="828" y1="29.6094" y2="29.6094"/><text fill="#000000" font-family="sans-serif" font-size="14" font-weight="bold" lengthAdjust="spacing" textLength="272" x="547" y="22.5332">src.components.AdminDashboard.MVC</text><path d="M872.5,6 L1107.5,6 A3.75,3.75 0 0 1 1110,8.5 L1117,29.6094 L1121.5,29.6094 A2.5,2.5 0 0 1 1124,32.1094 L1124,58.7188 A2.5,2.5 0 0 1 1121.5,61.2188 L872.5,61.2188 A2.5,2.5 0 0 1 870,58.7188 L870,8.5 A2.5,2.5 0 0 1 872.5,6 " fill="#F1F1F1" style="stroke:#181818;stroke-width:0.5;"/><line style="stroke:#181818;stroke-width:0.5;" x1="870" x2="1117" y1="29.6094" y2="29.6094"/><text fill="#000000" font-family="sans-serif" font-size="14" font-weight="bold" lengthAdjust="spacing" textLength="234" x="874" y="22.5332">src.components.SellerDashboard</text><path d="M1161.5,6 L1432.5,6 A3.75,3.75 0 0 1 1435,8.5 L1442,29.6094 L1446.5,29.6094 A2.5,2.5 0 0 1 1449,32.1094 L1449,58.7188 A2.5,2.5 0 0 1 1446.5,61.2188 L1161.5,61.2188 A2.5,2.5 0 0 1 1159,58.7188 L1159,8.5 A2.5,2.5 0 0 1 1161.5,6 " fill="#F1F1F1" style="stroke:#181818;stroke-width:0.5;"/><line style="stroke:#181818;stroke-width:0.5;" x1="1159" x2="1442" y1="29.6094" y2="29.6094"/><text fill="#000000" font-family="sans-serif" font-size="14" font-weight="bold" lengthAdjust="spacing" textLength="270" x="1163" y="22.5332">src.components.SellerDashboard.MVC</text><path d="M1276,121 L1526,121 A3.75,3.75 0 0 1 1528.5,123.5 L1535.5,144.6094 L1540,144.6094 A2.5,2.5 0 0 1 1542.5,147.1094 L1542.5,173.7188 A2.5,2.5 0 0 1 1540,176.2188 L1276,176.2188 A2.5,2.5 0 0 1 1273.5,173.7188 L1273.5,123.5 A2.5,2.5 0 0 1 1276,121 " fill="#F1F1F1" style="stroke:#181818;stroke-width:0.5;"/><line style="stroke:#181818;stroke-width:0.5;" x1="1273.5" x2="1535.5" y1="144.6094" y2="144.6094"/><text fill="#000000" font-family="sans-serif" font-size="14" font-weight="bold" lengthAdjust="spacing" textLength="249" x="1277.5" y="137.5332">src.components.application_facade</text><path d="M2174.5,6 L2219.5,6 A3.75,3.75 0 0 1 2222,8.5 L2229,29.6094 L2233.5,29.6094 A2.5,2.5 0 0 1 2236,32.1094 L2236,58.7188 A2.5,2.5 0 0 1 2233.5,61.2188 L2174.5,61.2188 A2.5,2.5 0 0 1 2172,58.7188 L2172,8.5 A2.5,2.5 0 0 1 2174.5,6 " fill="#F1F1F1" style="stroke:#181818;stroke-width:0.5;"/><line style="stroke:#181818;stroke-width:0.5;" x1="2172" x2="2229" y1="29.6094" y2="29.6094"/><text fill="#000000" font-family="sans-serif" font-size="14" font-weight="bold" lengthAdjust="spacing" textLength="44" x="2176" y="22.5332">src.db</text><path d="M2731,6 L2807,6 A3.75,3.75 0 0 1 2809.5,8.5 L2816.5,29.6094 L2821,29.6094 A2.5,2.5 0 0 1 2823.5,32.1094 L2823.5,58.7188 A2.5,2.5 0 0 1 2821,61.2188 L2731,61.2188 A2.5,2.5 0 0 1 2728.5,58.7188 L2728.5,8.5 A2.5,2.5 0 0 1 2731,6 " fill="#F1F1F1" style="stroke:#181818;stroke-width:0.5;"/><line style="stroke:#181818;stroke-width:0.5;" x1="2728.5" x2="2816.5" y1="29.6094" y2="29.6094"/><text fill="#000000" font-family="sans-serif" font-size="14" font-weight="bold" lengthAdjust="spacing" textLength="75" x="2732.5" y="22.5332">src.db.orm</text><path d="M2686.5,236 L2851.5,236 A3.75,3.75 0 0 1 2854,238.5 L2861,259.6094 L2865.5,259.6094 A2.5,2.5 0 0 1 2868,262.1094 L2868,288.7188 A2.5,2.5 0 0 1 2865.5,291.2188 L2686.5,291.2188 A2.5,2.5 0 0 1 2684,288.7188 L2684,238.5 A2.5,2.5 0 0 1 2686.5,236 " fill="#F1F1F1" style="stroke:#181818;stroke-width:0.5;"/><line style="stroke:#181818;stroke-width:0.5;" x1="2684" x2="2861" y1="259.6094" y2="259.6094"/><text fill="#000000" font-family="sans-serif" font-size="14" font-weight="bold" lengthAdjust="spacing" textLength="164" x="2688" y="252.5332">src.db.orm.base_model</text><path d="M1810.5,121 L1989.5,121 A3.75,3.75 0 0 1 1992,123.5 L1999,144.6094 L2003.5,144.6094 A2.5,2.5 0 0 1 2006,147.1094 L2006,173.7188 A2.5,2.5 0 0 1 2003.5,176.2188 L1810.5,176.2188 A2.5,2.5 0 0 1 1808,173.7188 L1808,123.5 A2.5,2.5 0 0 1 1810.5,121 " fill="#F1F1F1" style="stroke:#181818;stroke-width:0.5;"/><line style="stroke:#181818;stroke-width:0.5;" x1="1808" x2="1999" y1="144.6094" y2="144.6094"/><text fill="#000000" font-family="sans-serif" font-size="14" font-weight="bold" lengthAdjust="spacing" textLength="178" x="1812" y="137.5332">src.db.orm.cliente_model</text><path d="M2043.5,121 L2270.5,121 A3.75,3.75 0 0 1 2273,123.5 L2280,144.6094 L2284.5,144.6094 A2.5,2.5 0 0 1 2287,147.1094 L2287,173.7188 A2.5,2.5 0 0 1 2284.5,176.2188 L2043.5,176.2188 A2.5,2.5 0 0 1 2041,173.7188 L2041,123.5 A2.5,2.5 0 0 1 2043.5,121 " fill="#F1F1F1" style="stroke:#181818;stroke-width:0.5;"/><line style="stroke:#181818;stroke-width:0.5;" x1="2041" x2="2280" y1="144.6094" y2="144.6094"/><text fill="#000000" font-family="sans-serif" font-size="14" font-weight="bold" lengthAdjust="spacing" textLength="226" x="2045" y="137.5332">src.db.orm.detalle_venta_model</text><path d="M2324.5,121 L2617.5,121 A3.75,3.75 0 0 1 2620,123.5 L2627,144.6094 L2631.5,144.6094 A2.5,2.5 0 0 1 2634,147.1094 L2634,173.7188 A2.5,2.5 0 0 1 2631.5,176.2188 L2324.5,176.2188 A2.5,2.5 0 0 1 2322,173.7188 L2322,123.5 A2.5,2.5 0 0 1 2324.5,121 " fill="#F1F1F1" style="stroke:#181818;stroke-width:0.5;"/><line style="stroke:#181818;stroke-width:0.5;" x1="2322" x2="2627" y1="144.6094" y2="144.6094"/><text fill="#000000" font-family="sans-serif" font-size="14" font-weight="bold" lengthAdjust="spacing" textLength="292" x="2326" y="137.5332">src.db.orm.movimiento_inventario_model</text><path d="M2671.5,121 L2866.5,121 A3.75,3.75 0 0 1 2869,123.5 L2876,144.6094 L2880.5,144.6094 A2.5,2.5 0 0 1 2883,147.1094 L2883,173.7188 A2.5,2.5 0 0 1 2880.5,176.2188 L2671.5,176.2188 A2.5,2.5 0 0 1 2669,173.7188 L2669,123.5 A2.5,2.5 0 0 1 2671.5,121 " fill="#F1F1F1" style="stroke:#181818;stroke-width:0.5;"/><line style="stroke:#181818;stroke-width:0.5;" x1="2669" x2="2876" y1="144.6094" y2="144.6094"/><text fill="#000000" font-family="sans-serif" font-size="14" font-weight="bold" lengthAdjust="spacing" textLength="194" x="2673" y="137.5332">src.db.orm.producto_model</text><path d="M2921,121 L3127,121 A3.75,3.75 0 0 1 3129.5,123.5 L3136.5,144.6094 L3141,144.6094 A2.5,2.5 0 0 1 3143.5,147.1094 L3143.5,173.7188 A2.5,2.5 0 0 1 3141,176.2188 L2921,176.2188 A2.5,2.5 0 0 1 2918.5,173.7188 L2918.5,123.5 A2.5,2.5 0 0 1 2921,121 " fill="#F1F1F1" style="stroke:#181818;stroke-width:0.5;"/><line style="stroke:#181818;stroke-width:0.5;" x1="2918.5" x2="3136.5" y1="144.6094" y2="144.6094"/><text fill="#000000" font-family="sans-serif" font-size="14" font-weight="bold" lengthAdjust="spacing" textLength="205" x="2922.5" y="137.5332">src.db.orm.proveedor_model</text><path d="M3181,121 L3385,121 A3.75,3.75 0 0 1 3387.5,123.5 L3394.5,144.6094 L3399,144.6094 A2.5,2.5 0 0 1 3401.5,147.1094 L3401.5,173.7188 A2.5,2.5 0 0 1 3399,176.2188 L3181,176.2188 A2.5,2.5 0 0 1 3178.5,173.7188 L3178.5,123.5 A2.5,2.5 0 0 1 3181,121 " fill="#F1F1F1" style="stroke:#181818;stroke-width:0.5;"/><line style="stroke:#181818;stroke-width:0.5;" x1="3178.5" x2="3394.5" y1="144.6094" y2="144.6094"/><text fill="#000000" font-family="sans-serif" font-size="14" font-weight="bold" lengthAdjust="spacing" textLength="203" x="3182.5" y="137.5332">src.db.orm.suministra_model</text><path d="M3439.5,121 L3642.5,121 A3.75,3.75 0 0 1 3645,123.5 L3652,144.6094 L3656.5,144.6094 A2.5,2.5 0 0 1 3659,147.1094 L3659,173.7188 A2.5,2.5 0 0 1 3656.5,176.2188 L3439.5,176.2188 A2.5,2.5 0 0 1 3437,173.7188 L3437,123.5 A2.5,2.5 0 0 1 3439.5,121 " fill="#F1F1F1" style="stroke:#181818;stroke-width:0.5;"/><line style="stroke:#181818;stroke-width:0.5;" x1="3437" x2="3652" y1="144.6094" y2="144.6094"/><text fill="#000000" font-family="sans-serif" font-size="14" font-weight="bold" lengthAdjust="spacing" textLength="202" x="3441" y="137.5332">src.db.orm.trabajador_model</text><path d="M3696.5,121 L3867.5,121 A3.75,3.75 0 0 1 3870,123.5 L3877,144.6094 L3881.5,144.6094 A2.5,2.5 0 0 1 3884,147.1094 L3884,173.7188 A2.5,2.5 0 0 1 3881.5,176.2188 L3696.5,176.2188 A2.5,2.5 0 0 1 3694,173.7188 L3694,123.5 A2.5,2.5 0 0 1 3696.5,121 " fill="#F1F1F1" style="stroke:#181818;stroke-width:0.5;"/><line style="stroke:#181818;stroke-width:0.5;" x1="3694" x2="3877" y1="144.6094" y2="144.6094"/><text fill="#000000" font-family="sans-serif" font-size="14" font-weight="bold" lengthAdjust="spacing" textLength="170" x="3698" y="137.5332">src.db.orm.venta_model</text><path d="M1487,6 L1547,6 A3.75,3.75 0 0 1 1549.5,8.5 L1556.5,29.6094 L1561,29.6094 A2.5,2.5 0 0 1 1563.5,32.1094 L1563.5,58.7188 A2.5,2.5 0 0 1 1561,61.2188 L1487,61.2188 A2.5,2.5 0 0 1 1484.5,58.7188 L1484.5,8.5 A2.5,2.5 0 0 1 1487,6 " fill="#F1F1F1" style="stroke:#181818;stroke-width:0.5;"/><line style="stroke:#181818;stroke-width:0.5;" x1="1484.5" x2="1556.5" y1="29.6094" y2="29.6094"/><text fill="#000000" font-family="sans-serif" font-size="14" font-weight="bold" lengthAdjust="spacing" textLength="59" x="1488.5" y="22.5332">src.main</text><path d="M3328.5,6 L3385.5,6 A3.75,3.75 0 0 1 3388,8.5 L3395,29.6094 L3399.5,29.6094 A2.5,2.5 0 0 1 3402,32.1094 L3402,58.7188 A2.5,2.5 0 0 1 3399.5,61.2188 L3328.5,61.2188 A2.5,2.5 0 0 1 3326,58.7188 L3326,8.5 A2.5,2.5 0 0 1 3328.5,6 " fill="#F1F1F1" style="stroke:#181818;stroke-width:0.5;"/><line style="stroke:#181818;stroke-width:0.5;" x1="3326" x2="3395" y1="29.6094" y2="29.6094"/><text fill="#000000" font-family="sans-serif" font-size="14" font-weight="bold" lengthAdjust="spacing" textLength="56" x="3330" y="22.5332">src.utils</text><path d="M1580.5,121 L1685.5,121 A3.75,3.75 0 0 1 1688,123.5 L1695,144.6094 L1699.5,144.6094 A2.5,2.5 0 0 1 1702,147.1094 L1702,173.7188 A2.5,2.5 0 0 1 1699.5,176.2188 L1580.5,176.2188 A2.5,2.5 0 0 1 1578,173.7188 L1578,123.5 A2.5,2.5 0 0 1 1580.5,121 " fill="#F1F1F1" style="stroke:#181818;stroke-width:0.5;"/><line style="stroke:#181818;stroke-width:0.5;" x1="1578" x2="1695" y1="144.6094" y2="144.6094"/><text fill="#000000" font-family="sans-serif" font-size="14" font-weight="bold" lengthAdjust="spacing" textLength="104" x="1582" y="137.5332">src.utils.config</text><path d="M3921.5,121 L4028.5,121 A3.75,3.75 0 0 1 4031,123.5 L4038,144.6094 L4042.5,144.6094 A2.5,2.5 0 0 1 4045,147.1094 L4045,173.7188 A2.5,2.5 0 0 1 4042.5,176.2188 L3921.5,176.2188 A2.5,2.5 0 0 1 3919,173.7188 L3919,123.5 A2.5,2.5 0 0 1 3921.5,121 " fill="#F1F1F1" style="stroke:#181818;stroke-width:0.5;"/><line style="stroke:#181818;stroke-width:0.5;" x1="3919" x2="4038" y1="144.6094" y2="144.6094"/><text fill="#000000" font-family="sans-serif" font-size="14" font-weight="bold" lengthAdjust="spacing" textLength="106" x="3923" y="137.5332">src.utils.logger</text><path d="M3906.5,6 L4043.5,6 A3.75,3.75 0 0 1 4046,8.5 L4053,29.6094 L4057.5,29.6094 A2.5,2.5 0 0 1 4060,32.1094 L4060,58.7188 A2.5,2.5 0 0 1 4057.5,61.2188 L3906.5,61.2188 A2.5,2.5 0 0 1 3904,58.7188 L3904,8.5 A2.5,2.5 0 0 1 3906.5,6 " fill="#F1F1F1" style="stroke:#181818;stroke-width:0.5;"/><line style="stroke:#181818;stroke-width:0.5;" x1="3904" x2="4053" y1="29.6094" y2="29.6094"/><text fill="#000000" font-family="sans-serif" font-size="14" font-weight="bold" lengthAdjust="spacing" textLength="136" x="3908" y="22.5332">src.utils.usoLogger</text><!--link src.db.orm to src.db.orm.base_model--><g id="link_src.db.orm_src.db.orm.base_model"><path codeLine="48" d="M2728.2,36.91 C2535.2,46.88 1822.1,85.96 1790,121 C1773.49,139.02 1773.49,157.98 1790,176 C1849.71,241.17 2444.3508,257.3603 2677.8508,261.2403 " fill="none" id="src.db.orm-to-src.db.orm.base_model" style="stroke:#181818;stroke-width:1.0;"/><polygon fill="#181818" points="2683.85,261.34,2674.9177,257.191,2678.8507,261.2569,2674.7848,265.1899,2683.85,261.34" style="stroke:#181818;stroke-width:1.0;"/></g><!--link src.db.orm to src.db.orm.cliente_model--><g id="link_src.db.orm_src.db.orm.cliente_model"><path codeLine="49" d="M2728.24,38.19 C2608.89,47.79 2288.29,76.01 2024,121 C2018.15,122 2018.0405,121.959 2012.0005,123.129 " fill="none" id="src.db.orm-to-src.db.orm.cliente_model" style="stroke:#181818;stroke-width:1.0;"/><polygon fill="#181818" points="2006.11,124.27,2015.7064,126.4854,2011.0188,123.3191,2014.1851,118.6314,2006.11,124.27" style="stroke:#181818;stroke-width:1.0;"/></g><!--link src.db.orm to src.db.orm.detalle_venta_model--><g id="link_src.db.orm_src.db.orm.detalle_venta_model"><path codeLine="50" d="M2728.18,43.21 C2643.07,58.74 2459.69,92.26 2305,121 C2299.12,122.09 2299.0072,122.1043 2292.9272,123.2443 " fill="none" id="src.db.orm-to-src.db.orm.detalle_venta_model" style="stroke:#181818;stroke-width:1.0;"/><polygon fill="#181818" points="2287.03,124.35,2296.613,126.6229,2291.9444,123.4286,2295.1387,118.7599,2287.03,124.35" style="stroke:#181818;stroke-width:1.0;"/></g><!--link src.db.orm to src.db.orm.movimiento_inventario_model--><g id="link_src.db.orm_src.db.orm.movimiento_inventario_model"><path codeLine="51" d="M2728.45,52.53 C2679.81,70.97 2609.3101,97.7025 2553.7501,118.7725 " fill="none" id="src.db.orm-to-src.db.orm.movimiento_inventario_model" style="stroke:#181818;stroke-width:1.0;"/><polygon fill="#181818" points="2548.14,120.9,2557.9736,121.4488,2552.8151,119.1271,2555.1368,113.9686,2548.14,120.9" style="stroke:#181818;stroke-width:1.0;"/></g><!--link src.db.orm to src.db.orm.producto_model--><g id="link_src.db.orm_src.db.orm.producto_model"><path codeLine="52" d="M2776,61.28 C2776,79.29 2776,96.94 2776,114.91 " fill="none" id="src.db.orm-to-src.db.orm.producto_model" style="stroke:#181818;stroke-width:1.0;"/><polygon fill="#181818" points="2776,120.91,2780,111.91,2776,115.91,2772,111.91,2776,120.91" style="stroke:#181818;stroke-width:1.0;"/></g><!--link src.db.orm to src.db.orm.proveedor_model--><g id="link_src.db.orm_src.db.orm.proveedor_model"><path codeLine="53" d="M2823.66,55.62 C2865.32,74.08 2920.5241,98.55 2965.4941,118.47 " fill="none" id="src.db.orm-to-src.db.orm.proveedor_model" style="stroke:#181818;stroke-width:1.0;"/><polygon fill="#181818" points="2970.98,120.9,2964.3712,113.5977,2966.4084,118.875,2961.1311,120.9122,2970.98,120.9" style="stroke:#181818;stroke-width:1.0;"/></g><!--link src.db.orm to src.db.orm.suministra_model--><g id="link_src.db.orm_src.db.orm.suministra_model"><path codeLine="54" d="M2823.89,45.03 C2904.21,62.69 3062.1999,97.4221 3172.6299,121.6921 " fill="none" id="src.db.orm-to-src.db.orm.suministra_model" style="stroke:#181818;stroke-width:1.0;"/><polygon fill="#181818" points="3178.49,122.98,3170.5584,117.1414,3173.6065,121.9067,3168.8412,124.9549,3178.49,122.98" style="stroke:#181818;stroke-width:1.0;"/></g><!--link src.db.orm to src.db.orm.trabajador_model--><g id="link_src.db.orm_src.db.orm.trabajador_model"><path codeLine="55" d="M2823.76,39.78 C2930.71,51.87 3197.46,83.39 3419,121 C3424.86,121.99 3424.9585,121.9772 3431.0085,123.0872 " fill="none" id="src.db.orm-to-src.db.orm.trabajador_model" style="stroke:#181818;stroke-width:1.0;"/><polygon fill="#181818" points="3436.91,124.17,3428.7796,118.6115,3431.9921,123.2677,3427.3359,126.4802,3436.91,124.17" style="stroke:#181818;stroke-width:1.0;"/></g><!--link src.db.orm to src.db.orm.venta_model--><g id="link_src.db.orm_src.db.orm.venta_model"><path codeLine="56" d="M2823.68,36.78 C2958.44,43.71 3353.37,67.44 3677,121 C3682.52,121.91 3682.283,121.7812 3687.973,122.9012 " fill="none" id="src.db.orm-to-src.db.orm.venta_model" style="stroke:#181818;stroke-width:1.0;"/><polygon fill="#181818" points="3693.86,124.06,3685.802,118.3971,3688.9541,123.0943,3684.2569,126.2465,3693.86,124.06" style="stroke:#181818;stroke-width:1.0;"/></g><!--link src.db.orm.cliente_model to src.db.orm.base_model--><g id="link_src.db.orm.cliente_model_src.db.orm.base_model"><path codeLine="57" d="M2006.11,172.73 C2012.15,173.9 2018.15,175 2024,176 C2260.27,216.22 2535.5716,242.5319 2677.8316,254.6219 " fill="none" id="src.db.orm.cliente_model-to-src.db.orm.base_model" style="stroke:#181818;stroke-width:1.0;"/><polygon fill="#181818" points="2683.81,255.13,2675.181,250.3822,2678.828,254.7066,2674.5036,258.3535,2683.81,255.13" style="stroke:#181818;stroke-width:1.0;"/></g><!--link src.db.orm.detalle_venta_model to src.db.orm.base_model--><g id="link_src.db.orm.detalle_venta_model_src.db.orm.base_model"><path codeLine="58" d="M2287.03,172.65 C2293.11,173.79 2299.12,174.91 2305,176 C2436.6,200.45 2583.0577,227.2816 2678.0177,244.6316 " fill="none" id="src.db.orm.detalle_venta_model-to-src.db.orm.base_model" style="stroke:#181818;stroke-width:1.0;"/><polygon fill="#181818" points="2683.92,245.71,2675.7855,240.1575,2679.0014,244.8113,2674.3476,248.0273,2683.92,245.71" style="stroke:#181818;stroke-width:1.0;"/></g><!--link src.db.orm.movimiento_inventario_model to src.db.orm.base_model--><g id="link_src.db.orm.movimiento_inventario_model_src.db.orm.base_model"><path codeLine="59" d="M2548.24,176.14 C2595.82,194.18 2652.8297,215.793 2700.3597,233.813 " fill="none" id="src.db.orm.movimiento_inventario_model-to-src.db.orm.base_model" style="stroke:#181818;stroke-width:1.0;"/><polygon fill="#181818" points="2705.97,235.94,2698.9725,229.0092,2701.2947,234.1675,2696.1365,236.4897,2705.97,235.94" style="stroke:#181818;stroke-width:1.0;"/></g><!--link src.db.orm.producto_model to src.db.orm.base_model--><g id="link_src.db.orm.producto_model_src.db.orm.base_model"><path codeLine="60" d="M2776,176.28 C2776,194.29 2776,211.94 2776,229.91 " fill="none" id="src.db.orm.producto_model-to-src.db.orm.base_model" style="stroke:#181818;stroke-width:1.0;"/><polygon fill="#181818" points="2776,235.91,2780,226.91,2776,230.91,2772,226.91,2776,235.91" style="stroke:#181818;stroke-width:1.0;"/></g><!--link src.db.orm.proveedor_model to src.db.orm.base_model--><g id="link_src.db.orm.proveedor_model_src.db.orm.base_model"><path codeLine="61" d="M2970.89,176.14 C2930.25,194.15 2882.275,215.3979 2841.635,233.4179 " fill="none" id="src.db.orm.proveedor_model-to-src.db.orm.base_model" style="stroke:#181818;stroke-width:1.0;"/><polygon fill="#181818" points="2836.15,235.85,2845.9989,235.8585,2840.7208,233.8233,2842.7561,228.5452,2836.15,235.85" style="stroke:#181818;stroke-width:1.0;"/></g><!--link src.db.orm.suministra_model to src.db.orm.base_model--><g id="link_src.db.orm.suministra_model_src.db.orm.base_model"><path codeLine="62" d="M3178.47,174.02 C3085.61,194.43 2960.83,221.8615 2873.87,240.9815 " fill="none" id="src.db.orm.suministra_model-to-src.db.orm.base_model" style="stroke:#181818;stroke-width:1.0;"/><polygon fill="#181818" points="2868.01,242.27,2877.659,244.244,2872.8934,241.1963,2875.9411,236.4306,2868.01,242.27" style="stroke:#181818;stroke-width:1.0;"/></g><!--link src.db.orm.trabajador_model to src.db.orm.base_model--><g id="link_src.db.orm.trabajador_model_src.db.orm.base_model"><path codeLine="63" d="M3436.91,172.83 C3430.86,173.94 3424.86,175.01 3419,176 C3223.69,209.16 2999.2198,236.8869 2874.0998,251.4369 " fill="none" id="src.db.orm.trabajador_model-to-src.db.orm.base_model" style="stroke:#181818;stroke-width:1.0;"/><polygon fill="#181818" points="2868.14,252.13,2877.5418,255.0636,2873.1065,251.5525,2876.6177,247.1172,2868.14,252.13" style="stroke:#181818;stroke-width:1.0;"/></g><!--link src.db.orm.venta_model to src.db.orm.base_model--><g id="link_src.db.orm.venta_model_src.db.orm.base_model"><path codeLine="64" d="M3693.86,172.94 C3688.17,174.06 3682.52,175.09 3677,176 C3383.79,224.53 3038.0504,248.2216 2874.3004,257.4716 " fill="none" id="src.db.orm.venta_model-to-src.db.orm.base_model" style="stroke:#181818;stroke-width:1.0;"/><polygon fill="#181818" points="2868.31,257.81,2877.5213,261.296,2873.302,257.528,2877.0701,253.3088,2868.31,257.81" style="stroke:#181818;stroke-width:1.0;"/></g><!--link src.main to src.components.application_facade--><g id="link_src.main_src.components.application_facade"><path codeLine="65" d="M1496.51,61.28 C1478.02,79.29 1458.0382,98.7536 1439.5882,116.7236 " fill="none" id="src.main-to-src.components.application_facade" style="stroke:#181818;stroke-width:1.0;"/><polygon fill="#181818" points="1435.29,120.91,1444.5282,117.4959,1438.8718,117.4214,1438.9464,111.765,1435.29,120.91" style="stroke:#181818;stroke-width:1.0;"/></g><!--link src.main to src.utils.config--><g id="link_src.main_src.utils.config"><path codeLine="66" d="M1551.49,61.28 C1569.98,79.29 1589.9618,98.7536 1608.4118,116.7236 " fill="none" id="src.main-to-src.utils.config" style="stroke:#181818;stroke-width:1.0;"/><polygon fill="#181818" points="1612.71,120.91,1609.0536,111.765,1609.1282,117.4214,1603.4718,117.4959,1612.71,120.91" style="stroke:#181818;stroke-width:1.0;"/></g><!--link src.utils.usoLogger to src.utils.logger--><g id="link_src.utils.usoLogger_src.utils.logger"><path codeLine="67" d="M3982,61.28 C3982,79.29 3982,96.94 3982,114.91 " fill="none" id="src.utils.usoLogger-to-src.utils.logger" style="stroke:#181818;stroke-width:1.0;"/><polygon fill="#181818" points="3982,120.91,3986,111.91,3982,115.91,3978,111.91,3982,120.91" style="stroke:#181818;stroke-width:1.0;"/></g><!--SRC=[bPN1JiCm38RlUufgz_KHa10SuJI9Q-KsNWaqIPMako3UdRHZeqbZavscsD__rqfipw6lD2Xq8tHun14iU6ChRJJkGkWJUgpspdRx2bmLVgkltNUKg3kZna1hxwxCAiJXzQDGKZ-3UsyDM95H9yGTPlNhszF_XZF5cXvn6D2o9IR8FNPKaHcCjOLn76G7NXhTdA03WJdNBRKr5UrDATfSkZPMhP3vI65r2muRPGGEYMAL8SNT84FLX3vAaXO2FOIBRCw1XRnH1Y7jb3bBDN_ND58l0YjDtfP1IVlH6Z5rdd2Civp96L4OIxgiqwIDcyAKIESjSMrfdZGAH0iVG1QKvaaZvWtPjrCWzKqm7xR8vENmjxgM4m65QT8dsSViRv2I3ARlqIQIIv2IJCwyv5It-29S3U3Xy92VBWQAHeZXCXF2q4pZCwgukNbmtRyCcNOeWwOzoA3vIqZMKSbhP1TFaP1RBKK6oIOfrKHxeqYqMH95gir6A5ALN-Eo0wu8- - -unTVplilDPGnUflm7]--></g></svg>